<svg xmlns="http://www.w3.org/2000/svg" viewBox="0 0 1204.74 1365.78"><defs><style>.cls-1{fill:#44b75a;}.cls-2{fill:#ef363f;}.cls-3{fill:#b6d433;}.cls-4{fill:#83c44c;}.cls-5{fill:#e67e2c;}</style></defs><g id="Layer_2" data-name="Layer 2"><g id="Layer_1-2" data-name="Layer 1"><path class="cls-1" d="M408.29,517.31V204.14C408.29,91.4,316.89,0,204.14,0h0C91.4,0,0,91.4,0,204.14v914.21C15.86,868.22,135.66,659.46,408.29,517.31Z"/><path class="cls-2" d="M1001.16,891.15a203,203,0,0,1-74.87-14.27s0,0-.07,0c-1.72-.66-54.21-18.38-129.77-22.51v307.24c0,112.75,91.4,204.14,204.14,204.14h0c112.75,0,204.15-91.39,204.15-204.14V687.57C1204.74,800,1113.59,891.15,1001.16,891.15Z"/><path class="cls-2" d="M1000.59,0h0C887.85,0,796.45,91.4,796.45,204.14v242.2c143.32,8,251.28,43,251.28,43v0c90,21.07,157,101.76,157,198.17V204.14C1204.74,91.4,1113.34,0,1000.59,0Z"/><path class="cls-3" d="M408.29,517.31v642.13C409.56,1112.63,425,954.35,573,891.15c79.84-34.09,159.81-40.23,223.43-36.75V446.34C677.58,439.68,534.39,451.56,408.29,517.31Z"/><path class="cls-4" d="M0,1118.35v43.29c0,112.75,91.4,204.14,204.14,204.14h0c91.39,0,168.74-60,194.77-142.84a203.57,203.57,0,0,0,8-49.56l1-.52c.13-2.39.17-4.81.22-7.23,0-1.76,0-3.84.1-6.19V517.31C135.66,659.46,15.86,868.22,0,1118.35Z"/><path class="cls-5" d="M1047.72,489.4v0s-108-35-251.28-43V854.4c75.56,4.13,128,21.85,129.77,22.51,0,0,0,0,.07,0a203,203,0,0,0,74.87,14.27c112.43,0,203.58-91.15,203.58-203.58C1204.74,591.16,1137.7,510.47,1047.72,489.4Z"/></g></g></svg>